<?xml version="1.0" standalone="no"?>
<!DOCTYPE svg PUBLIC "-//W3C//DTD SVG 20010904//EN"
 "http://www.w3.org/TR/2001/REC-SVG-20010904/DTD/svg10.dtd">
<svg version="1.0" xmlns="http://www.w3.org/2000/svg"
 width="1278.000000pt" height="719.000000pt" viewBox="0 0 1278.000000 719.000000"
 preserveAspectRatio="xMidYMid meet">
<metadata>
Created by potrace 1.16, written by Peter Selinger 2001-2019
</metadata>
<g transform="translate(0.000000,719.000000) scale(0.100000,-0.100000)"
fill="none" stroke="orange" stroke-width="10">
<path d="M710 3440 l0 -3440 45 0 45 0 0 3395 0 3395 430 0 430 0 0 -699 c0
-402 4 -754 11 -828 81 -994 456 -1902 1110 -2688 118 -142 420 -441 579 -573
726 -604 1595 -972 2540 -1077 313 -35 770 -30 1100 11 1588 198 2972 1192
3676 2639 237 487 378 975 450 1560 15 118 18 258 21 898 l4 757 430 0 429 0
0 -3395 0 -3395 40 0 40 0 0 3440 0 3440 -5690 0 -5690 0 0 -3440z m3400 3348
c0 -2 58 -280 128 -620 l128 -616 -38 -6 c-23 -4 -36 -11 -33 -19 2 -6 6 -25
10 -40 5 -26 9 -28 42 -25 l36 3 63 -300 c35 -165 63 -303 64 -306 0 -4 -16
-10 -35 -13 -19 -4 -35 -8 -35 -10 0 -5 49 -247 55 -274 5 -20 11 -23 42 -20
l37 3 63 -300 c34 -165 62 -303 63 -307 0 -4 -16 -10 -35 -14 -35 -6 -35 -7
-29 -43 9 -50 9 -50 48 -41 l35 8 10 -52 c6 -28 35 -167 64 -308 l53 -257 -33
-6 c-34 -6 -40 -22 -27 -71 5 -19 10 -21 41 -14 23 6 36 5 38 -3 21 -63 145
-712 145 -756 0 -145 63 -379 146 -544 65 -130 135 -227 239 -336 199 -207
430 -337 714 -402 129 -30 365 -36 506 -14 313 49 592 195 808 425 217 230
352 538 372 845 5 66 139 777 150 792 1 2 16 -2 35 -7 19 -5 35 -8 36 -7 2 2
6 21 10 44 6 40 6 40 -30 47 -29 6 -36 11 -32 24 3 9 30 139 60 287 31 149 58
280 61 291 4 19 9 21 40 14 37 -8 36 -9 49 51 5 24 2 27 -29 33 -19 4 -35 10
-35 14 0 4 28 143 62 308 l62 302 38 -6 c21 -2 38 -1 38 4 0 8 41 211 55 271
4 19 0 23 -30 29 -19 3 -35 9 -35 13 0 3 28 142 62 308 l63 303 37 -6 c36 -6
37 -6 44 31 7 41 -4 55 -44 55 -18 0 -21 4 -17 23 3 12 61 290 129 617 l123
595 1186 3 1187 2 0 -602 c0 -771 -14 -1019 -76 -1358 -310 -1704 -1523 -3091
-3169 -3623 -1085 -351 -2269 -285 -3324 184 -1416 631 -2447 1965 -2696 3490
-55 339 -57 373 -62 1167 l-5 742 1186 0 c652 0 1186 -1 1186 -2z m4498 -10
c-3 -7 -202 -970 -444 -2140 l-439 -2128 -1322 0 c-728 0 -1323 4 -1323 8 0 6
-765 3713 -876 4245 l-6 27 2207 0 c1761 0 2206 -3 2203 -12z m-900 -4440
c-48 -503 -391 -939 -876 -1112 -255 -91 -555 -94 -826 -9 -393 123 -721 450
-850 847 -26 78 -49 194 -61 299 l-6 57 1313 0 1314 0 -8 -82z"/>
<path d="M5720 5930 l0 -40 320 0 320 0 0 -73 0 -74 -39 -11 c-76 -23 -151
-130 -151 -214 0 -79 58 -171 132 -209 54 -27 152 -28 205 -1 81 42 123 113
123 209 -1 99 -57 183 -144 214 l-36 13 0 73 0 73 320 0 320 0 0 40 0 40 -685
0 -685 0 0 -40z m746 -286 c105 -50 107 -201 4 -255 -125 -67 -264 78 -190
199 40 66 116 89 186 56z" stroke="orange"/>
</g>
</svg>
